<?xml version="1.0" encoding="utf-8"?><svg xmlns="http://www.w3.org/2000/svg" xmlns:xlink="http://www.w3.org/1999/xlink"><symbol viewBox="0 0 480 480" id="icon-cake" xmlns="http://www.w3.org/2000/svg"><path d="M472 335.975h-24v-96c0-17.673-14.327-32-32-32h-32v-80c0-17.673-14.327-32-32-32h-95.856l42.256-32.8c15.382-11.975 18.144-34.151 6.17-49.533-11.974-15.382-34.151-18.144-49.533-6.17a35.297 35.297 0 0 0-8.956 10.327l-3.912 6.848-3.912-6.848C228.565.885 206.998-4.971 190.084 4.72c-16.914 9.691-22.769 31.258-13.078 48.172a35.288 35.288 0 0 0 8.915 10.282l42.224 32.8H128c-17.673 0-32 14.327-32 32v80H64c-17.673 0-32 14.327-32 32v96H8a8 8 0 0 0-8 8c.026 22.08 17.92 39.974 40 40h176v48h-32c-22.08.026-39.974 17.92-40 40a8 8 0 0 0 8 8h176a8 8 0 0 0 8-8c-.026-22.08-17.92-39.974-40-40h-32v-48h176c22.08-.026 39.974-17.92 40-40a8 8 0 0 0-8-7.999zM195.752 50.503c-8.196-6.339-9.907-18.026-3.872-26.448a18.943 18.943 0 0 1 15.64-8.08h1.04a18.96 18.96 0 0 1 15.784 9.696L235.2 44.695a8 8 0 0 0 13.888 0l10.864-19c5.283-9.25 17.064-12.466 26.315-7.183a19.285 19.285 0 0 1 6.133 5.543c6.04 8.416 4.34 20.102-3.848 26.448l-46.4 36.096-46.4-36.096zM112 143.975h8v-16h-8c0-8.837 7.163-16 16-16h224c8.837 0 16 7.163 16 16h-8v16h8v21.24a47.898 47.898 0 0 1-25.144-20.624 8 8 0 0 0-13.713 0c-13.533 22.723-42.924 30.173-65.648 16.64a47.89 47.89 0 0 1-16.64-16.64 8 8 0 0 0-13.712 0c-13.533 22.723-42.924 30.173-65.648 16.64a47.881 47.881 0 0 1-16.64-16.64 8.312 8.312 0 0 0-13.712 0 47.898 47.898 0 0 1-25.144 20.624v-21.24zm0 37.904a63.515 63.515 0 0 0 32-19.632c23.292 26.51 63.665 29.118 90.175 5.825a63.792 63.792 0 0 0 5.825-5.825c23.292 26.51 63.665 29.118 90.175 5.825a63.792 63.792 0 0 0 5.825-5.825 63.515 63.515 0 0 0 32 19.632v26.096H112v-26.096zm-64 74.096h16v-16H48c0-8.837 7.163-16 16-16h352c8.837 0 16 7.163 16 16h-16v16h16v24a47.656 47.656 0 0 1-41.144-23.384 8 8 0 0 0-13.713 0c-13.533 22.723-42.924 30.173-65.648 16.64a47.89 47.89 0 0 1-16.64-16.64 8.312 8.312 0 0 0-13.712 0c-13.533 22.723-42.924 30.173-65.648 16.64a47.881 47.881 0 0 1-16.64-16.64 8.312 8.312 0 0 0-13.712 0c-13.533 22.723-42.924 30.173-65.648 16.64a47.881 47.881 0 0 1-16.64-16.64 8.312 8.312 0 0 0-13.712 0A47.657 47.657 0 0 1 48 279.975v-24zm0 40a63.352 63.352 0 0 0 48-21.72c23.292 26.51 63.665 29.118 90.175 5.825a63.792 63.792 0 0 0 5.825-5.825c23.292 26.51 63.665 29.118 90.175 5.825a63.792 63.792 0 0 0 5.825-5.825c23.292 26.51 63.665 29.118 90.175 5.825a63.792 63.792 0 0 0 5.825-5.825 63.353 63.353 0 0 0 48 21.72v40H48v-40zm248 152a24.047 24.047 0 0 1 22.632 16H161.368a24.047 24.047 0 0 1 22.632-16h112zm-64-16v-48h16v48h-16zm208-64H40a24.047 24.047 0 0 1-22.632-16h445.264a24.05 24.05 0 0 1-22.632 16z"/><path d="M184 127.975h16v16h-16zm96 0h16v16h-16zm-144 112h16v16h-16zm96 0h16v16h-16zm96 0h16v16h-16z"/></symbol><symbol viewBox="0 0 55 54.031" id="icon-gift" xmlns="http://www.w3.org/2000/svg"><defs><style>.bcls-1{fill-rule:evenodd}</style></defs><path id="bиконка_доставка" data-name="иконка доставка" class="bcls-1" d="M344.066 693.144h-7.63a7.457 7.457 0 0 0 2.008-5.092v-.385a6.847 6.847 0 0 0-3.56-5.78 7.109 7.109 0 0 0-6.979 0l-3.469 1.945a12.053 12.053 0 0 0-4.932 5.209 12.053 12.053 0 0 0-4.932-5.209l-3.469-1.945a7.109 7.109 0 0 0-6.979 0 6.847 6.847 0 0 0-3.56 5.78v.385a7.459 7.459 0 0 0 2.008 5.092h-7.63a2.927 2.927 0 0 0-2.942 2.913v6.913a2.927 2.927 0 0 0 2.934 2.913h1.344v26.2a2.927 2.927 0 0 0 2.934 2.917h40.576a2.927 2.927 0 0 0 2.934-2.913v-26.2h1.344A2.927 2.927 0 0 0 347 702.97v-6.913a2.927 2.927 0 0 0-2.934-2.913zm-18.433-7.2L329.1 684a4.662 4.662 0 0 1 4.58 0 4.44 4.44 0 0 1 2.32 3.749v.3a5.117 5.117 0 0 1-5.13 5.092h-10.078a9.6 9.6 0 0 1 4.841-7.196zm-22.63 1.8a4.442 4.442 0 0 1 2.313-3.744 4.665 4.665 0 0 1 4.581 0l3.47 1.944a9.605 9.605 0 0 1 4.841 7.2H308.13a5.117 5.117 0 0 1-5.13-5.092v-.303zm11 21.825h-5.032a1.213 1.213 0 1 0 0 2.426H314v20.573h-14.788a.488.488 0 0 1-.49-.486v-26.2H314v3.691zm0-6.118h-19.069a.489.489 0 0 1-.49-.486v-6.913a.49.49 0 0 1 .49-.487H314v7.886zm8.555 29.117h-6.11v-37h6.11v37zm17.723-.486a.488.488 0 0 1-.49.486H325V712h4.657a1.214 1.214 0 1 0 0-2.427H325v-3.69h15.278v26.2zm4.278-29.117a.489.489 0 0 1-.49.486H325v-7.881h19.066a.49.49 0 0 1 .49.487v6.913zM335.463 712h.122a1.214 1.214 0 1 0 0-2.427h-.122a1.214 1.214 0 1 0 0 2.427zm-32.422 0h.122a1.214 1.214 0 1 0 0-2.427h-.122a1.214 1.214 0 1 0 0 2.427z" transform="translate(-292 -680.969)"/></symbol><symbol viewBox="0 0 169.063 169.063" id="icon-instagram" xmlns="http://www.w3.org/2000/svg"><path d="M122.406 0H46.654C20.929 0 0 20.93 0 46.655v75.752c0 25.726 20.929 46.655 46.654 46.655h75.752c25.727 0 46.656-20.93 46.656-46.655V46.655C169.063 20.93 148.133 0 122.406 0zm31.657 122.407c0 17.455-14.201 31.655-31.656 31.655H46.654C29.2 154.063 15 139.862 15 122.407V46.655C15 29.201 29.2 15 46.654 15h75.752c17.455 0 31.656 14.201 31.656 31.655v75.752z"/><path d="M84.531 40.97c-24.021 0-43.563 19.542-43.563 43.563 0 24.02 19.542 43.561 43.563 43.561s43.563-19.541 43.563-43.561c0-24.021-19.542-43.563-43.563-43.563zm0 72.123c-15.749 0-28.563-12.812-28.563-28.561 0-15.75 12.813-28.563 28.563-28.563s28.563 12.813 28.563 28.563c0 15.749-12.814 28.561-28.563 28.561zm45.39-84.842c-2.89 0-5.729 1.17-7.77 3.22a11.053 11.053 0 0 0-3.23 7.78c0 2.891 1.18 5.73 3.23 7.78 2.04 2.04 4.88 3.22 7.77 3.22 2.9 0 5.73-1.18 7.78-3.22 2.05-2.05 3.22-4.89 3.22-7.78 0-2.9-1.17-5.74-3.22-7.78-2.04-2.05-4.88-3.22-7.78-3.22z"/></symbol><symbol id="icon-petal" viewBox="0 0 512 512" xmlns="http://www.w3.org/2000/svg"><style>.dst0,.dst1{stroke:#000;stroke-width:6;stroke-miterlimit:10}.dst1{stroke-width:5}</style><path class="dst0" d="M438 75C389.7 26.6 325.4 0 257 0S124.3 26.6 76 75C27.6 123.3 1 187.6 1 256s26.6 132.7 75 181c48.4 48.4 112.6 75 181 75s132.7-26.6 181-75c48.4-48.4 75-112.6 75-181s-26.6-132.7-75-181zm-10.7 351.3c-45.5 45.5-105.9 70.5-170.3 70.5s-124.8-25-170.3-70.5c-45.4-45.5-70.5-106-70.5-170.3s25-124.8 70.5-170.3c45.5-45.4 106-70.5 170.3-70.5s124.8 25 170.3 70.5c45.5 45.5 70.5 105.9 70.5 170.3s-25.1 124.8-70.5 170.3z"/><path class="dst0" d="M451.8 173l-13.8 6.4c13 27.8 19.6 57.8 19.6 88.9h15.2c0-33.4-7-65.4-21-95.3zm-42.3-65.9C366.9 64.5 310.2 41 250 41v15.2c56.2 0 109 21.9 148.8 61.6 12.9 12.9 24 27.3 33.1 42.8l13.1-7.7c-9.8-16.6-21.7-32-35.5-45.8z"/><path class="dst1" d="M340.6 309.2h-8.7c-15 0-43 2.8-61.2 21-2.4 2.4-4.5 5-6.4 7.8v-41.4h.9c15 0 43-2.7 61.2-21 25-25 20.8-68.1 20.7-69.9-.4-3.4-3.1-6.1-6.5-6.5h-8.7c-15 0-43 2.8-61.2 21-2.4 2.4-4.5 5-6.4 7.8v-19c8.2-7.3 32.1-31.8 32.1-61.7 0-35.3-33.4-62.9-34.8-64-2.7-2.2-6.5-2.2-9.2 0-1.5 1.2-34.8 28.8-34.8 64 0 29.9 24 54.3 32.1 61.7v18.6c-1.9-2.8-4-5.4-6.4-7.9-18.3-18.3-46.2-21-61.2-21h-8.7c-3.4.4-6.1 3.1-6.5 6.5 0 1.8-4.3 44.9 20.7 69.9 18.3 18.3 46.2 21 61.2 21h.9v41c-1.9-2.7-4.1-5.1-6.5-7.4-18.3-18.3-46.2-21-61.2-21h-8.7c-3.4.4-6.1 3.1-6.5 6.5 0 1.8-4.3 44.9 20.7 69.9 18.3 18.3 46.2 21 61.2 21h.9v59.6c0 4 3.3 7.3 7.3 7.3s7.3-3.3 7.3-7.3v-59.1h.8c15 0 43-2.7 61.2-21 25-25 20.8-68.1 20.7-69.9-.2-3.4-2.9-6.1-6.3-6.5zM198 265.4c-15.1-15.1-16.8-40.3-16.8-51.9h.9c10.3 0 35.8 1.6 51 16.8s16.8 40.3 16.8 51.9c-9.9.2-36.3-1.2-51.9-16.8zM249.9 392c-9.9.2-36.3-1.2-51.9-16.8-15.1-15.1-16.8-40.3-16.8-51.9 10 0 36.4 1.2 51.9 16.8s16.9 40.4 16.8 51.9zm7.4-196c-8.4-8.2-24.9-27.2-24.9-48.6s16.6-40.3 24.8-48.5c8.3 8.2 24.8 27.2 24.8 48.5s-16.4 40.4-24.7 48.6zm24 34.2l-.4.1c15.1-15.1 40.7-16.8 51-16.8h.9c0 11.6-1.5 36.4-16.8 51.9s-41.9 17-51.9 16.8c.3-11.9 2-36.8 17.2-52zm35.1 145.1c-15.2 15.5-40.6 16.8-51 16.8h-.9c0-11.7 1.7-36.8 16.8-51.9l-.1-.1c15.1-15.1 40.7-16.8 51-16.8h.9c0 11.6-1.5 36.5-16.7 52z"/></symbol><symbol viewBox="0 0 75.999 75.999" id="icon-quotes" xmlns="http://www.w3.org/2000/svg"><path d="M14.579 5C6.527 5 0 11.716 0 20c0 8.285 6.527 15 14.579 15C29.157 35 19.438 64 0 64v7C34.69 71 48.286 5 14.579 5zm42 0C48.527 5 42 11.716 42 20c0 8.285 6.527 15 14.579 15C71.157 35 61.438 64 42 64v7C76.69 71 90.286 5 56.579 5z"/></symbol><symbol viewBox="0 0 31.49 31.49" id="icon-row" xmlns="http://www.w3.org/2000/svg"><path d="M21.205 5.007a1.112 1.112 0 0 0-1.587 0 1.12 1.12 0 0 0 0 1.571l8.047 8.047H1.111A1.106 1.106 0 0 0 0 15.737c0 .619.492 1.127 1.111 1.127h26.554l-8.047 8.032c-.429.444-.429 1.159 0 1.587a1.112 1.112 0 0 0 1.587 0l9.952-9.952a1.093 1.093 0 0 0 0-1.571l-9.952-9.953z" fill="#1e201d"/></symbol><symbol viewBox="0 0 511.271 511.271" id="icon-tiwtter" xmlns="http://www.w3.org/2000/svg"><path d="M508.342 94.243c-2.603-2.603-6.942-3.471-10.414-2.603l-17.356 6.075c10.414-12.149 17.356-25.166 21.695-37.315 1.736-4.339.868-7.81-1.736-10.414-2.603-2.603-6.942-3.471-10.414-1.736-24.298 10.414-45.125 19.092-62.481 24.298 0 .868-.868 0-1.736 0-13.885-7.81-47.729-25.166-72.027-25.166-61.614.868-111.078 52.936-111.078 116.285v3.471c-90.251-17.356-139.715-43.39-193.519-99.797L40.6 58.663l-5.207 10.414c-29.505 56.407-8.678 107.607 25.166 142.319-15.62-2.603-26.034-7.81-35.58-15.62-3.471-2.603-7.81-3.471-12.149-.868-3.471 1.736-5.207 6.942-4.339 11.281 12.149 40.786 42.522 73.763 75.498 93.722-15.62 0-28.637-1.736-41.654-10.414-3.471-1.736-8.678-1.736-12.149.868s-5.207 6.942-3.471 11.281c15.62 44.258 45.993 67.688 94.59 73.763-25.166 14.753-58.142 26.902-109.342 27.77-5.207 0-9.546 3.471-11.281 7.81-1.736 5.207 0 9.546 3.471 13.017 31.241 25.166 100.664 39.919 186.576 39.919 152.732 0 277.695-136.244 277.695-303.729v-2.603c19.092-9.546 34.712-27.77 42.522-52.936.867-3.472-.001-7.811-2.604-10.414zm-52.068 49.464l-5.207 1.736v14.753c0 157.939-117.153 286.373-260.339 286.373-78.97 0-131.905-13.017-160.542-26.902 59.878-4.339 94.59-23.431 121.492-44.258l21.695-15.62h-26.034c-49.464 0-79.837-13.885-97.193-46.861 15.62 5.207 32.108 5.207 50.332 4.339 6.942-.868 13.885-.868 20.827-.868l2.603-17.356c-32.976-9.546-72.027-39.051-91.119-78.969 17.356 7.81 36.447 9.546 53.803 9.546h26.902L91.8 213.999c-18.224-13.017-72.027-59.01-45.993-124.963 55.539 54.671 108.475 79.837 203.932 97.193l10.414 1.736v-24.298c0-53.803 41.654-98.061 93.722-98.929 19.959-.868 52.936 17.356 62.481 22.563 5.207 2.603 10.414 3.471 15.62 1.736 13.017-4.339 28.637-10.414 45.993-17.356-7.81 13.017-18.224 25.166-32.108 36.448-3.471 2.603-4.339 7.81-2.603 12.149 1.736 4.339 6.942 6.075 11.281 4.339l33.844-11.281c-6.075 11.28-15.621 24.297-32.109 30.371z"/></symbol><symbol viewBox="0 0 511.998 511.998" id="icon-vk" xmlns="http://www.w3.org/2000/svg"><path d="M489.25 335.681c-11.137-13.347-23.719-25.264-35.888-36.789-4.276-4.051-8.7-8.24-12.96-12.399l-.003-.003c-5.73-5.589-8.535-9.556-8.828-12.486-.288-2.88 1.68-7.153 6.207-13.469 6.769-9.5 13.984-19.016 20.964-28.218 6.204-8.18 12.618-16.639 18.766-25.146l1.38-1.91c11.995-16.602 24.397-33.769 31.043-54.689 1.898-5.998 3.869-14.874-.885-22.666-4.756-7.794-13.573-10.104-19.787-11.162-3.035-.52-5.915-.563-8.595-.563l-77.806-.069c-13.452-.224-22.784 6.152-27.87 18.956-4.07 10.226-8.877 22.077-14.446 33.319-10.655 21.703-24.194 46.7-43.818 67.527l-.872.928c-1.336 1.426-3.519 3.758-4.64 4.293-2.126-1.336-4.579-8.977-4.467-12.98.003-.099.004-.197.004-.295l-.069-89.903c0-.457-.032-.914-.093-1.367-1.745-12.826-5.147-25.684-25.447-29.69a10.164 10.164 0 0 0-1.975-.193H198.23c-15.227 0-23.281 6.973-29.738 14.533-1.869 2.204-6.835 8.056-4.305 15.21 2.56 7.239 10.188 8.684 12.692 9.158 8.82 1.674 13.381 6.659 14.793 16.189 2.791 18.517 3.133 38.326 1.078 62.309-.573 6.439-1.639 11.333-3.359 15.403-.476 1.127-.894 1.825-1.186 2.236-.466-.188-1.191-.548-2.195-1.235-6.198-4.241-10.869-10.834-15.386-17.208-18.042-25.473-33.218-53.607-46.401-86.022-5.429-13.283-15.635-20.702-28.719-20.894-24.928-.415-47.983-.405-70.459.032-10.601.184-18.035 3.521-22.099 9.92-4.069 6.411-3.92 14.585.444 24.299 31.196 69.37 59.522 119.834 91.842 163.628 22.757 30.832 45.665 52.234 72.092 67.354 27.766 15.885 59.08 23.67 95.408 23.669 4.131 0 8.334-.101 12.593-.304 22.413-1.021 31.532-9.936 32.527-31.765.558-11.537 1.842-20.883 6.297-29.003 1.246-2.273 2.652-3.797 3.76-4.076 1.178-.294 3.267.427 5.59 1.936 4.247 2.758 7.904 6.498 10.911 9.781 3.048 3.337 6.128 6.784 9.109 10.117 6.343 7.097 12.902 14.436 19.774 21.436 15.543 15.844 33.461 23.11 53.278 21.588l71.205.033h.004c.226 0 .452-.007.678-.022 8.213-.547 15.314-5.094 19.484-12.478 5.021-8.892 4.945-20.155-.207-30.14-5.376-10.381-12.351-19.316-18.485-26.71zm.931 46.821c-.982 1.739-2.193 2.056-2.818 2.132l-71.19-.033h-.007a9.82 9.82 0 0 0-.841.035c-14.025 1.168-25.946-3.762-37.474-15.512-6.539-6.662-12.937-13.819-19.124-20.741-3.015-3.373-6.132-6.862-9.264-10.29-3.884-4.242-8.685-9.117-14.854-13.123-9.236-5.995-16.89-5.814-21.683-4.606-4.743 1.195-11.485 4.605-16.66 14.049-6.704 12.219-8.183 25.401-8.785 37.854-.348 7.616-1.636 9.628-2.174 10.139-.705.67-3.061 1.848-10.922 2.207-37.776 1.776-69.478-4.989-96.931-20.696-23.882-13.664-44.794-33.291-65.809-61.762-31.425-42.579-59.075-91.887-89.65-159.877-1.108-2.463-1.45-4-1.549-4.823.78-.256 2.304-.593 4.976-.642 22.248-.431 45.062-.443 69.765-.031 3.382.05 7.233 1.065 10.149 8.2 13.774 33.869 29.685 63.344 48.645 90.112 5.034 7.105 11.3 15.949 20.509 22.25 8.435 5.776 15.28 5.5 19.538 4.252 4.26-1.249 10.172-4.719 14.154-14.147 2.569-6.077 4.122-12.92 4.891-21.566 2.197-25.653 1.807-46.981-1.225-67.098-2.137-14.413-9.579-24.825-21.302-30.142 2.082-1.084 4.428-1.536 7.686-1.536h79.877c4.494 1.008 5.384 2.192 5.689 2.597 1.294 1.721 2.034 5.792 2.486 8.973l.068 89.074c-.18 8.539 3.97 27.477 18.1 32.67.116.043.233.083.35.121 12.864 4.204 21.373-4.877 25.941-9.756l.814-.866c21.496-22.815 35.971-49.473 47.28-72.508 5.894-11.895 10.886-24.199 15.107-34.805 2.112-5.319 4.034-6.195 8.62-6.098.063.002.125.002.189.002l77.905.069c1.812 0 3.703.021 5.17.272 3.712.632 5.241 1.402 5.745 1.721.052.591.04 2.291-1.082 5.839-5.651 17.789-16.572 32.903-28.133 48.905l-1.381 1.913c-6.007 8.312-12.35 16.675-18.483 24.764-7.07 9.321-14.378 18.958-21.307 28.684-14.814 20.669-13.512 34.385 4.975 52.417 4.369 4.265 8.847 8.507 13.179 12.609 12.281 11.633 23.882 22.62 34.235 35.026 5.42 6.534 11.564 14.381 16.042 23.029 2.336 4.527 1.763 8.617.563 10.743z"/><path d="M74.382 169.635a1088.422 1088.422 0 0 1-4.454-8.914c-2.496-5.049-8.608-7.123-13.661-4.627-5.05 2.495-7.122 8.611-4.627 13.661 1.499 3.034 3.012 6.062 4.537 9.081a10.199 10.199 0 0 0 13.702 4.502c5.029-2.542 7.044-8.676 4.503-13.703zm63.971 105.806c-16.724-22.659-32.37-47.27-47.83-75.239-2.725-4.93-8.931-6.716-13.86-3.992-4.929 2.725-6.717 8.931-3.992 13.86 15.896 28.756 32.013 54.102 49.271 77.485 2 2.71 5.087 4.143 8.214 4.143a10.14 10.14 0 0 0 6.048-1.995c4.531-3.344 5.493-9.729 2.149-14.262z"/></symbol></svg>