<svg id="Layer_1" xmlns="http://www.w3.org/2000/svg" viewBox="0 0 512 512"><style>.st0,.st1{stroke:#000;stroke-width:6;stroke-miterlimit:10}.st1{stroke-width:5}</style><path class="st0" d="M438 75C389.7 26.6 325.4 0 257 0S124.3 26.6 76 75C27.6 123.3 1 187.6 1 256s26.6 132.7 75 181c48.4 48.4 112.6 75 181 75s132.7-26.6 181-75c48.4-48.4 75-112.6 75-181s-26.6-132.7-75-181zm-10.7 351.3c-45.5 45.5-105.9 70.5-170.3 70.5s-124.8-25-170.3-70.5c-45.4-45.5-70.5-106-70.5-170.3s25-124.8 70.5-170.3c45.5-45.4 106-70.5 170.3-70.5s124.8 25 170.3 70.5c45.5 45.5 70.5 105.9 70.5 170.3s-25.1 124.8-70.5 170.3z"/><path class="st0" d="M451.8 173l-13.8 6.4c13 27.8 19.6 57.8 19.6 88.9h15.2c0-33.4-7-65.4-21-95.3zM409.5 107.1C366.9 64.5 310.2 41 250 41v15.2c56.2 0 109 21.9 148.8 61.6 12.9 12.9 24 27.3 33.1 42.8l13.1-7.7c-9.8-16.6-21.7-32-35.5-45.8z"/><g><path class="st1" d="M340.6 309.2h-8.7c-15 0-43 2.8-61.2 21-2.4 2.4-4.5 5-6.4 7.8v-41.4h.9c15 0 43-2.7 61.2-21 25-25 20.8-68.1 20.7-69.9-.4-3.4-3.1-6.1-6.5-6.5h-8.7c-15 0-43 2.8-61.2 21-2.4 2.4-4.5 5-6.4 7.8v-19c8.2-7.3 32.1-31.8 32.1-61.7 0-35.3-33.4-62.9-34.8-64-2.7-2.2-6.5-2.2-9.2 0-1.5 1.2-34.8 28.8-34.8 64 0 29.9 24 54.3 32.1 61.7v18.6c-1.9-2.8-4-5.4-6.4-7.9-18.3-18.3-46.2-21-61.2-21h-8.7c-3.4.4-6.1 3.1-6.5 6.5 0 1.8-4.3 44.9 20.7 69.9 18.3 18.3 46.2 21 61.2 21h.9v41c-1.9-2.7-4.1-5.1-6.5-7.4-18.3-18.3-46.2-21-61.2-21h-8.7c-3.4.4-6.1 3.1-6.5 6.5 0 1.8-4.3 44.9 20.7 69.9 18.3 18.3 46.2 21 61.2 21h.9v59.6c0 4 3.3 7.3 7.3 7.3s7.3-3.3 7.3-7.3v-59.1h.8c15 0 43-2.7 61.2-21 25-25 20.8-68.1 20.7-69.9-.2-3.4-2.9-6.1-6.3-6.5zM198 265.4c-15.1-15.1-16.8-40.3-16.8-51.9h.9c10.3 0 35.8 1.6 51 16.8s16.8 40.3 16.8 51.9c-9.9.2-36.3-1.2-51.9-16.8zM249.9 392c-9.9.2-36.3-1.2-51.9-16.8-15.1-15.1-16.8-40.3-16.8-51.9 10 0 36.4 1.2 51.9 16.8s16.9 40.4 16.8 51.9zm7.4-196c-8.4-8.2-24.9-27.2-24.9-48.6s16.6-40.3 24.8-48.5c8.3 8.2 24.8 27.2 24.8 48.5s-16.4 40.4-24.7 48.6zm24 34.2l-.4.1c15.1-15.1 40.7-16.8 51-16.8h.9c0 11.6-1.5 36.4-16.8 51.9s-41.9 17-51.9 16.8c.3-11.9 2-36.8 17.2-52zm35.1 145.1c-15.2 15.5-40.6 16.8-51 16.8h-.9c0-11.7 1.7-36.8 16.8-51.9l-.1-.1c15.1-15.1 40.7-16.8 51-16.8h.9c0 11.6-1.5 36.5-16.7 52z"/></g></svg>