<svg xmlns="http://www.w3.org/2000/svg" viewBox="0 0 480 480" width="512" height="512"><path d="M472 335.975h-24v-96c0-17.673-14.327-32-32-32h-32v-80c0-17.673-14.327-32-32-32h-95.856l42.256-32.8c15.382-11.975 18.144-34.151 6.17-49.533-11.974-15.382-34.151-18.144-49.533-6.17a35.297 35.297 0 0 0-8.956 10.327l-3.912 6.848-3.912-6.848C228.565.885 206.998-4.971 190.084 4.72c-16.914 9.691-22.769 31.258-13.078 48.172a35.288 35.288 0 0 0 8.915 10.282l42.224 32.8H128c-17.673 0-32 14.327-32 32v80H64c-17.673 0-32 14.327-32 32v96H8a8 8 0 0 0-8 8c.026 22.08 17.92 39.974 40 40h176v48h-32c-22.08.026-39.974 17.92-40 40a8 8 0 0 0 8 8h176a8 8 0 0 0 8-8c-.026-22.08-17.92-39.974-40-40h-32v-48h176c22.08-.026 39.974-17.92 40-40a8 8 0 0 0-8-7.999zM195.752 50.503c-8.196-6.339-9.907-18.026-3.872-26.448a18.943 18.943 0 0 1 15.64-8.08h1.04a18.96 18.96 0 0 1 15.784 9.696L235.2 44.695a8 8 0 0 0 13.888 0l10.864-19c5.283-9.25 17.064-12.466 26.315-7.183a19.285 19.285 0 0 1 6.133 5.543c6.04 8.416 4.34 20.102-3.848 26.448l-46.4 36.096-46.4-36.096zM112 143.975h8v-16h-8c0-8.837 7.163-16 16-16h224c8.837 0 16 7.163 16 16h-8v16h8v21.24a47.898 47.898 0 0 1-25.144-20.624 8 8 0 0 0-13.713 0c-13.533 22.723-42.924 30.173-65.648 16.64a47.89 47.89 0 0 1-16.64-16.64 8 8 0 0 0-13.712 0c-13.533 22.723-42.924 30.173-65.648 16.64a47.881 47.881 0 0 1-16.64-16.64 8.312 8.312 0 0 0-13.712 0 47.898 47.898 0 0 1-25.144 20.624v-21.24zm0 37.904a63.515 63.515 0 0 0 32-19.632c23.292 26.51 63.665 29.118 90.175 5.825a63.792 63.792 0 0 0 5.825-5.825c23.292 26.51 63.665 29.118 90.175 5.825a63.792 63.792 0 0 0 5.825-5.825 63.515 63.515 0 0 0 32 19.632v26.096H112v-26.096zm-64 74.096h16v-16H48c0-8.837 7.163-16 16-16h352c8.837 0 16 7.163 16 16h-16v16h16v24a47.656 47.656 0 0 1-41.144-23.384 8 8 0 0 0-13.713 0c-13.533 22.723-42.924 30.173-65.648 16.64a47.89 47.89 0 0 1-16.64-16.64 8.312 8.312 0 0 0-13.712 0c-13.533 22.723-42.924 30.173-65.648 16.64a47.881 47.881 0 0 1-16.64-16.64 8.312 8.312 0 0 0-13.712 0c-13.533 22.723-42.924 30.173-65.648 16.64a47.881 47.881 0 0 1-16.64-16.64 8.312 8.312 0 0 0-13.712 0A47.657 47.657 0 0 1 48 279.975v-24zm0 40a63.352 63.352 0 0 0 48-21.72c23.292 26.51 63.665 29.118 90.175 5.825a63.792 63.792 0 0 0 5.825-5.825c23.292 26.51 63.665 29.118 90.175 5.825a63.792 63.792 0 0 0 5.825-5.825c23.292 26.51 63.665 29.118 90.175 5.825a63.792 63.792 0 0 0 5.825-5.825 63.353 63.353 0 0 0 48 21.72v40H48v-40zm248 152a24.047 24.047 0 0 1 22.632 16H161.368a24.047 24.047 0 0 1 22.632-16h112zm-64-16v-48h16v48h-16zm208-64H40a24.047 24.047 0 0 1-22.632-16h445.264a24.05 24.05 0 0 1-22.632 16z"/><path d="M184 127.975h16v16h-16zM280 127.975h16v16h-16zM136 239.975h16v16h-16zM232 239.975h16v16h-16zM328 239.975h16v16h-16z"/></svg>