<svg xmlns="http://www.w3.org/2000/svg" width="55" height="54.031" viewBox="0 0 55 54.031"><defs><style>.cls-1{fill-rule:evenodd}</style></defs><path id="иконка_доставка" data-name="иконка доставка" class="cls-1" d="M344.066 693.144h-7.63a7.457 7.457 0 0 0 2.008-5.092v-.385a6.847 6.847 0 0 0-3.56-5.78 7.109 7.109 0 0 0-6.979 0l-3.469 1.945a12.053 12.053 0 0 0-4.932 5.209 12.053 12.053 0 0 0-4.932-5.209l-3.469-1.945a7.109 7.109 0 0 0-6.979 0 6.847 6.847 0 0 0-3.56 5.78v.385a7.459 7.459 0 0 0 2.008 5.092h-7.63a2.927 2.927 0 0 0-2.942 2.913v6.913a2.927 2.927 0 0 0 2.934 2.913h1.344v26.2a2.927 2.927 0 0 0 2.934 2.917h40.576a2.927 2.927 0 0 0 2.934-2.913v-26.2h1.344A2.927 2.927 0 0 0 347 702.97v-6.913a2.927 2.927 0 0 0-2.934-2.913zm-18.433-7.2L329.1 684a4.662 4.662 0 0 1 4.58 0 4.44 4.44 0 0 1 2.32 3.749v.3a5.117 5.117 0 0 1-5.13 5.092h-10.078a9.6 9.6 0 0 1 4.841-7.196zm-22.63 1.8a4.442 4.442 0 0 1 2.313-3.744 4.665 4.665 0 0 1 4.581 0l3.47 1.944a9.605 9.605 0 0 1 4.841 7.2H308.13a5.117 5.117 0 0 1-5.13-5.092v-.303zm11 21.825h-5.032a1.213 1.213 0 1 0 0 2.426H314v20.573h-14.788a.488.488 0 0 1-.49-.486v-26.2H314v3.691zm0-6.118h-19.069a.489.489 0 0 1-.49-.486v-6.913a.49.49 0 0 1 .49-.487H314v7.886zm8.555 29.117h-6.11v-37h6.11v37zm17.723-.486a.488.488 0 0 1-.49.486H325V712h4.657a1.214 1.214 0 1 0 0-2.427H325v-3.69h15.278v26.2zm4.278-29.117a.489.489 0 0 1-.49.486H325v-7.881h19.066a.49.49 0 0 1 .49.487v6.913zM335.463 712h.122a1.214 1.214 0 1 0 0-2.427h-.122a1.214 1.214 0 1 0 0 2.427zm-32.422 0h.122a1.214 1.214 0 1 0 0-2.427h-.122a1.214 1.214 0 1 0 0 2.427z" transform="translate(-292 -680.969)"/></svg>